<?xml version="1.0" encoding="UTF-8"?>
<svg id="Calque_1" data-name="Calque 1" xmlns="http://www.w3.org/2000/svg" viewBox="0 0 52.08 52.08">
  <defs>
    <style>
      .cls-1 {
        fill: #232323;
        stroke-width: 0px;
      }

      .cls-2 {
        fill: none;
        stroke: #232323;
        stroke-miterlimit: 10;
        stroke-width: 2px;
      }
    </style>
  </defs>
  <circle id="background" class="cls-2" cx="26.04" cy="26.04" r="25"/>
  <path id="behance" class="cls-1" d="M18.7,14.71c1.08,0,2.06.1,2.95.29s1.65.5,2.28.94,1.13,1.01,1.48,1.73.52,1.61.52,2.67c0,1.14-.26,2.09-.78,2.86s-1.29,1.39-2.3,1.87c1.4.4,2.44,1.11,3.13,2.11s1.03,2.22,1.03,3.63c0,1.14-.22,2.13-.67,2.97s-1.04,1.52-1.79,2.05c-.75.53-1.61.92-2.57,1.17-.97.25-1.97.38-2.97.38h-10.98V14.71h10.66ZM18.07,23.88c.89,0,1.62-.21,2.19-.63.57-.42.86-1.11.86-2.06,0-.53-.1-.96-.29-1.3s-.44-.6-.76-.79c-.32-.19-.68-.32-1.09-.4-.42-.07-.85-.11-1.29-.11h-4.66v5.3h5.04s0,0,0,0ZM18.35,33.49c.47,0,.94-.05,1.4-.14.44-.1.84-.25,1.17-.48.34-.22.61-.52.81-.9.2-.38.3-.87.3-1.46,0-1.16-.33-1.99-.98-2.49-.66-.5-1.52-.75-2.6-.75h-5.43v6.22h5.33s0,0,0,0ZM33.28,33.02c.68.66,1.65.98,2.92.98.91,0,1.69-.23,2.35-.68s1.06-.94,1.21-1.44h3.97c-.63,1.97-1.61,3.37-2.92,4.22-1.31.85-2.9,1.27-4.76,1.27-1.29,0-2.45-.21-3.49-.62s-1.91-1-2.63-1.76-1.28-1.67-1.67-2.73-.59-2.22-.59-3.49.2-2.37.6-3.43.97-1.97,1.71-2.74,1.62-1.38,2.65-1.82,2.16-.67,3.41-.67c1.4,0,2.61.27,3.65.81,1.04.54,1.89,1.26,2.55,2.17.67.91,1.15,1.95,1.44,3.11s.4,2.38.32,3.65h-11.84c.06,1.45.43,2.51,1.11,3.17h0ZM38.38,24.39c-.54-.59-1.36-.89-2.46-.89-.72,0-1.32.12-1.79.36-.48.24-.86.54-1.14.9-.29.36-.49.74-.6,1.14-.12.4-.19.76-.21,1.08h7.33c-.21-1.14-.59-2.01-1.13-2.6h0ZM31.4,15.86h9.16v2.54h-9.16v-2.54Z"/>
</svg>