<?xml version="1.0" encoding="UTF-8"?>
<svg xmlns="http://www.w3.org/2000/svg" viewBox="0 0 52 52">
  <defs>
    <style>
      .cls-1 {
        fill: #232323;
        stroke-width: 0px;
      }

      .cls-2 {
        fill: none;
        stroke: #232323;
        stroke-miterlimit: 10;
        stroke-width: 2px;
      }
    </style>
  </defs>
  <g id="Calque_1" data-name="Calque 1">
    <circle id="background" class="cls-2" cx="26" cy="26" r="25"/>
  </g>
  <g id="Capa_2" data-name="Capa 2">
    <path class="cls-1" d="M13.86,22.36c-.42-.54-.82-1.05-1.24-1.59.06-.07.1-.13.15-.18,1.36-1.21,2.69-2.44,4.08-3.61.72-.61,1.49-1.18,2.31-1.64,1.83-1.05,3.57-.46,4.49,1.44.48,1,.61,2.09.81,3.16.41,2.21.82,4.42,1.28,6.62.14.66.44,1.29.7,1.92.09.22.26.42.43.61.27.29.6.34.92.11.27-.19.53-.4.74-.65,1.19-1.41,2.16-2.95,2.83-4.67.22-.57.32-1.22.34-1.84.03-1.01-.56-1.63-1.57-1.63-.71,0-1.42.16-2.18.26.05.07.02.04.02.03.7-2.36,1.87-4.37,4.13-5.58,1.18-.63,2.43-.94,3.77-.69,1.78.34,2.99,1.66,3.36,3.59.29,1.53.08,3.01-.45,4.46-.77,2.11-1.93,4-3.21,5.82-1.69,2.39-3.46,4.7-5.64,6.68-1.01.92-2.08,1.74-3.35,2.26-2.08.85-3.47.42-4.7-1.47-.59-.91-1.04-1.89-1.32-2.94-.77-2.8-1.52-5.61-2.33-8.4-.22-.78-.61-1.51-.94-2.25-.11-.23-.29-.44-.46-.63-.46-.5-.81-.55-1.39-.2-.52.31-1.02.65-1.57,1Z"/>
  </g>
</svg>